<?xml version="1.0" encoding="utf-8"?>
<!-- Generator: Adobe Illustrator 19.2.0, SVG Export Plug-In . SVG Version: 6.00 Build 0)  -->
<svg version="1.1" baseProfile="basic" id="Layer_1"
	 xmlns="http://www.w3.org/2000/svg" xmlns:xlink="http://www.w3.org/1999/xlink" x="0px" y="0px" viewBox="0 0 99.5 99.5"
	 xml:space="preserve">
<style type="text/css">
	.st0{fill:#00A6CA;}
	.st1{fill:#FFFFFF;}
</style>
<circle class="st0" cx="49.8" cy="49.8" r="49.8"/>
<g>
	<path class="st1" d="M79.8,72H55.9c0.6,0,1.1-0.5,1-1.1l-0.7-8.7c0-0.6-0.6-1.1-1.2-1.1h-9.2c-0.6,0-1.1,0.5-1.2,1.1L44,70.9
		c0,0.6,0.4,1.1,1,1.1H21.1c-1.3,0-1.6-1.5-1.6-2.5c0-1.4,0.4-2.7,0.9-3.9l14.2-35.4c0.3-0.8,1.3-1.6,2.2-1.6h11.5
		c-0.6,0-1.1,0.5-1.2,1.1l-0.5,6.5c0,0.6,0.4,1.1,1,1.1h5.6c0.6,0,1.1-0.5,1-1.1l-0.5-6.5c0-0.6-0.6-1.1-1.2-1.1h11.5
		c0.9,0,1.8,0.7,2.2,1.6l14.2,35.4c0.5,1.2,0.9,2.6,0.9,3.9C81.3,70.5,81.1,72,79.8,72z M55.6,53.5l-0.8-10.9c0-0.6-0.6-1.1-1.2-1.1
		h-6.3c-0.6,0-1.1,0.5-1.2,1.1l-0.8,10.9v0.1c0,0.5,0.5,1,1,1h8.3c0.5,0,1-0.4,1-1V53.5z"/>
</g>
</svg>
