<?xml version="1.0" encoding="utf-8"?>
<!-- Generator: Adobe Illustrator 19.2.0, SVG Export Plug-In . SVG Version: 6.00 Build 0)  -->
<svg version="1.1" baseProfile="basic" id="Layer_1"
	 xmlns="http://www.w3.org/2000/svg" xmlns:xlink="http://www.w3.org/1999/xlink" x="0px" y="0px" viewBox="0 0 99.5 99.5"
	 xml:space="preserve">
<style type="text/css">
	.st0{fill:#00A6CA;}
	.st1{fill:#FFFFFF;}
</style>
<circle class="st0" cx="49.8" cy="49.8" r="49.8"/>
<g>
	<path class="st1" d="M78.6,42l-28.3,8.9c-0.1,0-0.2,0-0.3,0s-0.2,0-0.3,0l-16.5-5.2C32,46.8,31,49.6,30.8,53c1,0.6,1.6,1.6,1.6,2.8
		c0,1.1-0.6,2.1-1.5,2.7l1.5,10.9c0,0.2-0.1,0.5-0.2,0.6c-0.2,0.2-0.4,0.3-0.6,0.3h-4.8c-0.2,0-0.5-0.1-0.6-0.3
		c-0.2-0.2-0.2-0.4-0.2-0.6l1.5-10.9c-0.9-0.6-1.5-1.6-1.5-2.7c0-1.2,0.7-2.2,1.6-2.8c0.2-3,0.9-6.1,2.5-8.3L21.6,42
		c-0.3-0.1-0.6-0.4-0.6-0.8s0.2-0.7,0.6-0.8l28.3-8.9c0.1,0,0.2,0,0.3,0s0.2,0,0.3,0l28.3,8.9c0.3,0.1,0.6,0.4,0.6,0.8
		S79,41.8,78.6,42z M66.3,57.3c0.2,3.6-7.2,6.5-16.2,6.5S33.8,60.9,34,57.3l0.5-8l14.5,4.6c0.4,0.1,0.8,0.2,1.2,0.2s0.8-0.1,1.2-0.2
		l14.5-4.6L66.3,57.3z"/>
</g>
</svg>
