<?xml version="1.0" encoding="utf-8"?>
<!-- Generator: Adobe Illustrator 19.2.0, SVG Export Plug-In . SVG Version: 6.00 Build 0)  -->
<svg version="1.1" baseProfile="basic" id="Layer_1"
	 xmlns="http://www.w3.org/2000/svg" xmlns:xlink="http://www.w3.org/1999/xlink" x="0px" y="0px" viewBox="0 0 201.2 203"
	 xml:space="preserve">
<g>
	<path fill="#ffffff" d="M99.7,0C62.1,0,29.3,20.5,11.7,50.9C5.1,63,4.4,73.5,9.4,82.2c5.8,10.1,18.8,11.7,26.1,11.7h12.9l-4.7,14.7
		c-3,8.9-1.7,18.3,2.9,24.8c4.5,6.2,11.8,9.7,20.4,9.7c6,0,12.3-1,18.1-3.7c-1.5-2.2-2.8-4.6-3.8-7.2c-0.9-2.4-1.5-4.9-1.8-7.4
		c-3.6,1.4-7.7,2-11.7,2c-2.3,0-5.7-0.9-7.5-3.3c-1.6-2.2-2.1-5.8-0.9-9.8l6.4-19.8h19.9L91,77.4H71.2l8.8-27H62.5l-8.7,27H35.5
		c-5.8,0-9.5-1.5-11.2-4.5c-2-3.4-0.2-10.4,4.6-18.6l0.2-0.3c15.3-22.6,41.1-37.5,70.5-37.5c47,0,85,38.1,85,85c0,47-38.1,85-85,85
		c-41.5,0-76.1-29.8-83.5-69.2L0,120.7C9,167.6,50.2,203,99.7,203c56.1,0,101.5-45.4,101.5-101.5C201.2,45.4,155.7,0,99.7,0z"/>
	<path fill="#ffffff" d="M164.2,128.9c-3.9,0-9.3-0.5-12.5-2.8c-1.2-0.9-2.9-2.6-3.4-5.1c0,0-0.1-0.2-0.1-0.2c-0.2-1.3-0.1-2.9,0.5-4.7l12.5-38.7
		h-0.1h-17.4h0l-10.7,33.5c0,0,0,0,0,0.1c-3,8.6-12,15.7-20.1,15.7c-2.1,0-4.9-0.9-6.3-2.8c-1.1-1.5-2.1-4-0.8-7.8l12.6-38.7h-17.4
		l-10.7,33.4c-2.8,8.2-1.8,16.8,2.6,23.1c4.3,5.9,11.2,9.2,19.3,9.2c8.1,0,16.7-3.3,23.8-9.2c2.4,3.6,5.4,6,9.4,7.3
		c5.5,1.9,9.2,1.9,13.2,1.9c1.9,0,3.8-0.4,4.7-0.6c0.3-0.5,0.7-1.1,1.1-1.6c0.6-1.1,1.2-2.1,1.8-3.2c0.6-1,1.1-2.2,1.7-3.2
		c0.5-1.1,1-2.2,1.5-3.4c0.3-0.8,0.7-1.6,1-2.4C169.4,128.7,167,128.9,164.2,128.9z"/>
</g>
</svg>
