<?xml version="1.0" encoding="utf-8"?>
<!-- Generator: Adobe Illustrator 19.2.0, SVG Export Plug-In . SVG Version: 6.00 Build 0)  -->
<svg version="1.1" baseProfile="basic" id="Layer_1"
	 xmlns="http://www.w3.org/2000/svg" xmlns:xlink="http://www.w3.org/1999/xlink" x="0px" y="0px" viewBox="0 0 99.5 99.5"
	 xml:space="preserve">
<style type="text/css">
	.st0{fill:#00A6CA;}
	.st1{fill:#FFFFFF;}
</style>
<circle class="st0" cx="49.8" cy="49.8" r="49.8"/>
<g>
	<path class="st1" d="M38,55.3c0,2.1-0.8,3.9-2.3,5.5c-1.5,1.5-3.4,2.3-5.5,2.2h0.1v3.7h-3.7v-3.7h-5.7v-3.6h9.3
		c1.1,0,2.1-0.4,2.9-1.2c0.8-0.8,1.2-1.8,1.2-2.9c0-1.1-0.4-2.1-1.2-2.9c-0.8-0.8-1.8-1.2-2.9-1.2h-3.7c-2.1,0-4-0.8-5.5-2.3
		c-1.5-1.5-2.3-3.4-2.3-5.6c0-2.1,0.8-3.9,2.3-5.5c1.5-1.5,3.4-2.3,5.5-2.3h0.1V32h3.7v3.6h5.5v3.8h-9.3c-1.1,0-2.1,0.4-2.9,1.2
		c-0.8,0.8-1.2,1.8-1.2,2.9c0,1.1,0.4,2.1,1.2,2.9c0.8,0.8,1.8,1.2,2.9,1.2h3.7c2.1,0,3.9,0.8,5.5,2.3C37.2,51.3,38,53.1,38,55.3z"
		/>
	<path class="st1" d="M60.2,55.3c0,2.1-0.8,3.9-2.3,5.5c-1.5,1.5-3.4,2.3-5.5,2.2h0.1v3.7h-3.7v-3.7h-5.7v-3.6h9.3
		c1.1,0,2.1-0.4,2.9-1.2c0.8-0.8,1.2-1.8,1.2-2.9c0-1.1-0.4-2.1-1.2-2.9c-0.8-0.8-1.8-1.2-2.9-1.2h-3.7c-2.1,0-4-0.8-5.5-2.3
		c-1.5-1.5-2.3-3.4-2.3-5.6c0-2.1,0.8-3.9,2.3-5.5c1.5-1.5,3.4-2.3,5.5-2.3h0.1V32h3.7v3.6H58v3.8h-9.3c-1.1,0-2.1,0.4-2.9,1.2
		c-0.8,0.8-1.2,1.8-1.2,2.9c0,1.1,0.4,2.1,1.2,2.9c0.8,0.8,1.8,1.2,2.9,1.2h3.7c2.1,0,3.9,0.8,5.5,2.3
		C59.4,51.3,60.2,53.1,60.2,55.3z"/>
	<path class="st1" d="M82.4,55.3c0,2.1-0.8,3.9-2.3,5.5c-1.5,1.5-3.4,2.3-5.5,2.2h0.1v3.7H71v-3.7h-5.7v-3.6h9.3
		c1.1,0,2.1-0.4,2.9-1.2c0.8-0.8,1.2-1.8,1.2-2.9c0-1.1-0.4-2.1-1.2-2.9c-0.8-0.8-1.8-1.2-2.9-1.2h-3.7c-2.1,0-4-0.8-5.5-2.3
		c-1.5-1.5-2.3-3.4-2.3-5.6c0-2.1,0.8-3.9,2.3-5.5c1.5-1.5,3.4-2.3,5.5-2.3H71V32h3.7v3.6h5.5v3.8h-9.3c-1.1,0-2.1,0.4-2.9,1.2
		c-0.8,0.8-1.2,1.8-1.2,2.9c0,1.1,0.4,2.1,1.2,2.9c0.8,0.8,1.8,1.2,2.9,1.2h3.7c2.1,0,3.9,0.8,5.5,2.3
		C81.6,51.3,82.4,53.1,82.4,55.3z"/>
</g>
</svg>
