<?xml version="1.0" encoding="utf-8"?>
<!-- Generator: Adobe Illustrator 19.2.0, SVG Export Plug-In . SVG Version: 6.00 Build 0)  -->
<svg version="1.1" baseProfile="basic" id="Layer_1"
	 xmlns="http://www.w3.org/2000/svg" xmlns:xlink="http://www.w3.org/1999/xlink" x="0px" y="0px" viewBox="0 0 99.5 99.5"
	 xml:space="preserve">
<style type="text/css">
	.st0{fill:#00A6CA;}
	.st1{fill:#FFFFFF;}
</style>
<circle class="st0" cx="49.8" cy="49.8" r="49.8"/>
<g>
	<path class="st1" d="M73.1,41.1l-7.7,25.3c-0.7,2.4-3.2,4.2-5.6,4.2H34c-2.9,0-5.9-2.3-6.9-5.2c-0.4-1.3-0.4-2.5-0.1-3.6
		c0.1-0.6,0.2-1.1,0.2-1.8c0-0.4-0.2-0.8-0.2-1.1c0.1-0.7,0.7-1.1,1.1-1.9c0.8-1.4,1.8-3.7,2.1-5.1c0.1-0.5-0.1-1.1,0-1.6
		c0.1-0.5,0.7-0.9,1-1.4c0.8-1.3,1.7-3.8,1.9-5.1c0.1-0.6-0.2-1.2-0.1-1.7c0.2-0.6,0.8-0.9,1.2-1.5c0.7-0.9,1.8-3.6,2-5.1
		c0.1-0.5-0.2-1-0.1-1.5c0.1-0.5,0.8-1.1,1.2-1.7c1.2-1.7,1.4-5.6,4.9-4.6l0,0.1c0.5-0.1,1-0.3,1.4-0.3H65c1.3,0,2.5,0.6,3.2,1.6
		c0.7,1,0.9,2.3,0.5,3.6L61,58.2c-1.3,4.3-2,5.3-5.6,5.3H31.1c-0.4,0-0.8,0.1-1.1,0.4c-0.2,0.3-0.3,0.6,0,1.2c0.6,1.6,2.5,2,4,2
		h25.8c1,0,2.2-0.6,2.5-1.6l8.4-27.6c0.2-0.5,0.2-1.1,0.1-1.6c0.6,0.3,1.2,0.6,1.6,1.2C73.3,38.5,73.5,39.8,73.1,41.1z M41.1,45.6
		h17c0.5,0,1-0.4,1.2-0.9l0.6-1.8c0.2-0.5-0.1-0.9-0.6-0.9h-17c-0.5,0-1,0.4-1.2,0.9l-0.6,1.8C40.3,45.2,40.6,45.6,41.1,45.6z
		 M43.4,38.4h17c0.5,0,1-0.4,1.2-0.9l0.6-1.8c0.2-0.5-0.1-0.9-0.6-0.9h-17c-0.5,0-1,0.4-1.2,0.9l-0.6,1.8
		C42.6,38,42.9,38.4,43.4,38.4z"/>
</g>
</svg>
