<svg id="Layer_1" data-name="Layer 1" xmlns="http://www.w3.org/2000/svg" viewBox="0 0 500.63 68.64"><defs><style>.cls-1{fill:#231f20;}</style></defs><title>tu_logo</title><path class="cls-1" d="M84.26,23.42a16.71,16.71,0,0,0-5-2.5,16.9,16.9,0,0,0-5.69-.77,19.76,19.76,0,0,0-4.29.48,15.82,15.82,0,0,0-4,1.45A13.56,13.56,0,0,0,62,24.49a8.91,8.91,0,0,0-2.12,3.37,7.67,7.67,0,0,0-1.59-4.48,8.06,8.06,0,0,0-3.47-2.46,13.22,13.22,0,0,0-4.63-.77,23.68,23.68,0,0,0-5.15.57l0.1,7.13A8.65,8.65,0,0,1,48,28.1a2.48,2.48,0,0,1,1.49,1.11A4.7,4.7,0,0,1,50,31.14c0.06,0.78.1,1.67,0.1,2.7V67.48H60.55V40.69a11.44,11.44,0,0,1,1-4.87,9.56,9.56,0,0,1,2.6-3.42,10.93,10.93,0,0,1,3.81-2,14.91,14.91,0,0,1,4.48-.68,16.41,16.41,0,0,1,7.5,1.79v0Z"/><path class="cls-1" d="M130.33,60.06a2.76,2.76,0,0,1-1.5-1.25,4.67,4.67,0,0,1-.53-2.13c0-.83,0-1.8,0-2.89V24.39a54,54,0,0,0-9.35-3.13,42.54,42.54,0,0,0-9.73-1.11,29.47,29.47,0,0,0-10.46,1.59A23.19,23.19,0,0,0,84.87,34.61,26.73,26.73,0,0,0,82.75,45a31.08,31.08,0,0,0,1.3,9.15A21.44,21.44,0,0,0,88,61.6a17.75,17.75,0,0,0,6.55,5,22.37,22.37,0,0,0,9.25,1.78,18.52,18.52,0,0,0,9.59-2.65,14.86,14.86,0,0,0,6.41-7.47A11.82,11.82,0,0,0,120.93,64,7.51,7.51,0,0,0,124,67.05a9.74,9.74,0,0,0,4.34,1.06,23.34,23.34,0,0,0,4.92-.43V60.25A6.75,6.75,0,0,1,130.33,60.06Zm-12.2-15.91A18.69,18.69,0,0,1,114.9,54.8Q111.87,59,106,59q-6.46,0-9.59-3.81T93.26,45a20.46,20.46,0,0,1,1.26-6.8A16.08,16.08,0,0,1,97.65,33a13.32,13.32,0,0,1,4.68-3.33,15.18,15.18,0,0,1,6.07-1.16,28.75,28.75,0,0,1,4.77.43,21,21,0,0,1,5,1.49V44.15Z"/><path class="cls-1" d="M180.49,25.88a15.9,15.9,0,0,0-5.73-4.19,20.09,20.09,0,0,0-8.2-1.54,25.93,25.93,0,0,0-4.68.43,21.49,21.49,0,0,0-4.53,1.35,14,14,0,0,0-3.9,2.46,10.49,10.49,0,0,0-2.69,3.76,8.27,8.27,0,0,0-1.36-5.06A6.56,6.56,0,0,0,146,20.68a13.41,13.41,0,0,0-4.67-.48,37.44,37.44,0,0,0-5.12.62v7.23a10,10,0,0,1,2.75.14,2.34,2.34,0,0,1,1.49,1,4.15,4.15,0,0,1,.58,2c0.07,0.86.1,2,.1,3.33v33h10.6V41.07a13.68,13.68,0,0,1,.92-5.11,11.8,11.8,0,0,1,2.5-3.95,11.29,11.29,0,0,1,3.71-2.56,11.58,11.58,0,0,1,4.63-.91,11.2,11.2,0,0,1,7.86,3.13q3.13,3,3,8.53V67.48H185V40.2a27.54,27.54,0,0,0-1.11-8A17.35,17.35,0,0,0,180.49,25.88Z"/><path class="cls-1" d="M227.41,43.29a21.21,21.21,0,0,0-6.12-2.12c-2.31-.44-4.69-0.83-7.13-1.16a38.91,38.91,0,0,1-8.24-1.68,4,4,0,0,1-2.85-3.9,4.4,4.4,0,0,1,.68-2.75,6.14,6.14,0,0,1,2.17-2A11.6,11.6,0,0,1,209,28.39a14.39,14.39,0,0,1,3.57-.44,24.74,24.74,0,0,1,3.71.29,11.69,11.69,0,0,1,3.37,1,7.42,7.42,0,0,1,2.46,1.88,4.39,4.39,0,0,1,1,2.9h9.25A11.11,11.11,0,0,0,230.93,28a13.26,13.26,0,0,0-4.29-4.38,20.28,20.28,0,0,0-6.36-2.65,32.66,32.66,0,0,0-7.66-.87,30.75,30.75,0,0,0-7.32.87,19.71,19.71,0,0,0-6.32,2.7,14.93,14.93,0,0,0-4.43,4.53,11.9,11.9,0,0,0-1.69,6.46,10,10,0,0,0,2,6.27,12.68,12.68,0,0,0,4.82,3.62,26.51,26.51,0,0,0,6.55,1.88q3.61,0.58,7.18,1.06a27.76,27.76,0,0,1,7.52,1.83,4.46,4.46,0,0,1,2.89,4.43,6.34,6.34,0,0,1-1.11,3.52,6.87,6.87,0,0,1-2.6,2.17,13.42,13.42,0,0,1-3.52,1.11,22.32,22.32,0,0,1-3.86.34,16.52,16.52,0,0,1-3.76-.43,12.33,12.33,0,0,1-3.32-1.3,8,8,0,0,1-2.46-2.17,5.59,5.59,0,0,1-1.06-3.13H191.8A14.22,14.22,0,0,0,194,61a15.13,15.13,0,0,0,4.87,4.58A19.94,19.94,0,0,0,205.53,68a42,42,0,0,0,7.56.67,32.4,32.4,0,0,0,7.52-.87,20.66,20.66,0,0,0,6.46-2.65,14.22,14.22,0,0,0,4.53-4.58,12.39,12.39,0,0,0,1.73-6.65,12,12,0,0,0-1.64-6.65A11.7,11.7,0,0,0,227.41,43.29Z"/><path class="cls-1" d="M345,25.88a15.89,15.89,0,0,0-5.73-4.19,20.09,20.09,0,0,0-8.19-1.54,25.87,25.87,0,0,0-4.67.43,21.36,21.36,0,0,0-4.53,1.35A14,14,0,0,0,318,24.39a10.62,10.62,0,0,0-2.7,3.76,8.27,8.27,0,0,0-1.35-5.06,6.59,6.59,0,0,0-3.43-2.41,13.45,13.45,0,0,0-4.67-.48,37.33,37.33,0,0,0-5.11.62v7.23a9.89,9.89,0,0,1,2.75.14,2.33,2.33,0,0,1,1.49,1,4.17,4.17,0,0,1,.58,2c0.07,0.87.1,2,.1,3.33v33h10.6V41.07a13.77,13.77,0,0,1,.91-5.11A11.87,11.87,0,0,1,319.66,32a11.29,11.29,0,0,1,3.71-2.56,11.59,11.59,0,0,1,4.63-.91,11.17,11.17,0,0,1,7.85,3.13q3.14,3,3,8.53V67.48h10.6V40.2a27.63,27.63,0,0,0-1.11-8A17.3,17.3,0,0,0,345,25.88Z"/><rect class="cls-1" x="358.25" y="21.02" width="10.51" height="46.47"/><path class="cls-1" d="M417.71,26a23.12,23.12,0,0,0-8-4.39,30.55,30.55,0,0,0-9.35-1.44,27.05,27.05,0,0,0-8.87,1.49,22.69,22.69,0,0,0-7.71,4.48,22.23,22.23,0,0,0-5.45,7.47,24.71,24.71,0,0,0-2.07,10.46,25.08,25.08,0,0,0,2.12,10.65,22.36,22.36,0,0,0,13.35,12.14,28,28,0,0,0,18,0,23.28,23.28,0,0,0,7.86-4.53,22.57,22.57,0,0,0,5.59-7.61,25.09,25.09,0,0,0,2.12-10.65,25.27,25.27,0,0,0-2.08-10.6A21.13,21.13,0,0,0,417.71,26Zm-4.09,24.63a14.42,14.42,0,0,1-3.13,4.68A12.88,12.88,0,0,1,406,58.13a14,14,0,0,1-5.1,1,15.37,15.37,0,0,1-5.25-.92,13.21,13.21,0,0,1-4.58-2.79,13.41,13.41,0,0,1-3.23-4.73,16.73,16.73,0,0,1-1.21-6.6,16.38,16.38,0,0,1,1.16-6.41,12.86,12.86,0,0,1,3.09-4.53,13.2,13.2,0,0,1,4.38-2.7,16.19,16.19,0,0,1,5.06-1,15,15,0,0,1,5.3.78,12.8,12.8,0,0,1,4.63,2.7,13.61,13.61,0,0,1,3.27,4.62,15.9,15.9,0,0,1,1.25,6.56A16.46,16.46,0,0,1,413.61,50.61Z"/><path class="cls-1" d="M0,9.93V0H50.12V9.93H30.56V67.48h-11V9.93H0Z"/><path class="cls-1" d="M241.3,44.83V0h11.18V44.54c0,8.87,6.65,13.78,15.23,13.78s15-4.91,15-13.78V0h11.09V44.83c0,15-11.76,23.52-26.13,23.52C253.16,68.35,241.3,59.87,241.3,44.83Z"/><path class="cls-1" d="M477.41,56.59V49.27h0V40.2a27.63,27.63,0,0,0-1.1-8,17.44,17.44,0,0,0-3.37-6.32,15.94,15.94,0,0,0-5.74-4.19,20.12,20.12,0,0,0-8.2-1.54,25.82,25.82,0,0,0-4.67.43,21.5,21.5,0,0,0-4.53,1.35,14,14,0,0,0-3.91,2.46,10.58,10.58,0,0,0-2.7,3.76,8.28,8.28,0,0,0-1.35-5.06,6.59,6.59,0,0,0-3.43-2.41,13.45,13.45,0,0,0-4.68-.48,37.25,37.25,0,0,0-5.1.62v7.23a9.88,9.88,0,0,1,2.75.14,2.36,2.36,0,0,1,1.49,1,4.22,4.22,0,0,1,.57,2c0.06,0.86.1,2,.1,3.33v33h10.6V41.07a13.78,13.78,0,0,1,.91-5.11A11.78,11.78,0,0,1,447.57,32a11.26,11.26,0,0,1,3.71-2.56,11.56,11.56,0,0,1,4.63-.91,11.18,11.18,0,0,1,7.85,3.13q3.13,3,3,8.53V55.85h0V57c0,11.29,7.07,12.47,16.1,10.7V60.91C478.29,61.4,477.41,60.12,477.41,56.59Z"/><path class="cls-1" d="M488.19,62.06c0-8.37,12.45-8.37,12.45,0S488.19,70.46,488.19,62.06Zm11.36,0a5.13,5.13,0,1,0-10.26,0C489.29,69.14,499.55,69.14,499.55,62.06Zm-2.36,2.87v0.15h-1L494.66,63h-1.3v2.11h-0.94v-6h2.46A2,2,0,0,1,497,61a1.76,1.76,0,0,1-1.41,1.8Zm-3.84-2.74h1.45A1.15,1.15,0,0,0,496.07,61a1.17,1.17,0,0,0-1.27-1.16h-1.45v2.32Z"/></svg>