<?xml version="1.0" encoding="utf-8"?>
<!-- Generator: Adobe Illustrator 19.2.0, SVG Export Plug-In . SVG Version: 6.00 Build 0)  -->
<svg version="1.1" baseProfile="basic" id="Layer_1"
	 xmlns="http://www.w3.org/2000/svg" xmlns:xlink="http://www.w3.org/1999/xlink" x="0px" y="0px" viewBox="0 0 99.5 99.5"
	 xml:space="preserve">
<style type="text/css">
	.st0{fill:#00A6CA;}
	.st1{fill:#FFFFFF;}
</style>
<circle class="st0" cx="49.8" cy="49.8" r="49.8"/>
<g>
	<path class="st1" d="M59.2,47.3v28c0,2.1-1.7,3.8-3.8,3.8s-3.8-1.7-3.8-3.8v-13h-2.2v13c0,2.1-1.7,3.8-3.8,3.8s-3.8-1.7-3.8-3.8
		v-28l-9.9-9.9c-1.3-1.3-1.3-3.3,0-4.6c1.3-1.3,3.3-1.3,4.6,0l7.7,7.7h12.5l7.7-7.7c1.3-1.3,3.3-1.3,4.6,0c1.3,1.3,1.3,3.3,0,4.6
		L59.2,47.3z M50.5,39.4c-4.2,0-7.6-3.4-7.6-7.6c0-4.2,3.4-7.6,7.6-7.6s7.6,3.4,7.6,7.6C58.1,36,54.7,39.4,50.5,39.4z"/>
</g>
</svg>
